<svg width="24" height="21" viewBox="0 0 24 21" fill="none" xmlns="http://www.w3.org/2000/svg">
<path fill-rule="evenodd" clip-rule="evenodd" d="M12.0001 0C12.3157 0 12.5716 0.147731 12.5716 0.329966V8.57143V16.8129C12.5716 16.9951 12.3157 17.1429 12.0001 17.1429C11.6845 17.1429 11.4287 16.9951 11.4287 16.8129V8.57143V0.329966C11.4287 0.147731 11.6845 0 12.0001 0Z" fill="white"></path>
<path fill-rule="evenodd" clip-rule="evenodd" d="M5.83261 9.28497C5.99105 9.09524 6.24804 9.09509 6.40661 9.28466L11.9996 15.9705L17.5925 9.28466C17.7511 9.09509 18.0081 9.09524 18.1665 9.28497C18.325 9.47471 18.3249 9.7822 18.1663 9.97176L12.2864 17.0005C12.128 17.1899 11.8712 17.1899 11.7127 17.0005L5.83288 9.97176C5.6743 9.7822 5.67418 9.47471 5.83261 9.28497Z" fill="white"></path>
<path fill-rule="evenodd" clip-rule="evenodd" d="M0.45 13.8574C0.698528 13.8574 0.9 14.0471 0.9 14.2811V19.1613C0.9 19.3485 0.979017 19.5281 1.11967 19.6605C1.26032 19.7929 1.45109 19.8673 1.65 19.8673H22.35C22.5489 19.8673 22.7397 19.7929 22.8803 19.6605C23.021 19.5281 23.1 19.3485 23.1 19.1613V14.2811C23.1 14.0471 23.3015 13.8574 23.55 13.8574C23.7985 13.8574 24 14.0471 24 14.2811V19.1613C24 19.5732 23.8262 19.9683 23.5167 20.2596C23.2073 20.5509 22.7876 20.7146 22.35 20.7146H1.65C1.21239 20.7146 0.792708 20.5509 0.483274 20.2596C0.173839 19.9683 0 19.5732 0 19.1613V14.2811C0 14.0471 0.201472 13.8574 0.45 13.8574Z" fill="white"></path>
</svg>