<svg width="111" height="24" viewBox="0 0 111 24" fill="none" xmlns="http://www.w3.org/2000/svg">
<g id="img-lw-logo-white-bg">
<path fill-rule="evenodd" clip-rule="evenodd" d="M0 0V17.2794H111V0H0ZM46.8157 16.5441L41.8557 0.735294H110.265V16.5441H46.8157Z" fill="#78C317"/>
<path d="M10.2473 13.6029H3.77841V3.79412H6.30715V11.3971H10.2473V13.6029Z" fill="white"/>
<path d="M18.5891 13.6029H11.3998V3.79412H18.5891V6H13.9285V7.52941H18.4861V9.73529H13.9285V11.3971H18.5891V13.6029Z" fill="white"/>
<path d="M29.4372 13.6029H26.5703L26.0851 12.1912H22.2185L21.7333 13.6029H18.8664L22.5566 3.79412H25.747L29.4372 13.6029ZM25.3941 9.98529L24.1592 6.29412L22.9095 9.98529H25.3941Z" fill="white"/>
<path d="M34.1457 13.6029H30.0145V3.79412H34.131C37.2184 3.79412 39.4384 5.64706 39.4384 8.69118C39.4384 11.7353 37.2184 13.6029 34.1457 13.6029ZM34.131 11.3971C35.8511 11.3971 36.8509 10.1471 36.8509 8.69118C36.8509 7.17647 35.9394 6 34.1457 6H32.5432V11.3971H34.131Z" fill="white"/>
<path d="M57.3525 13.6029H54.6767L53.1918 7.45588L51.7069 13.6029H49.0311L46.223 3.79412H49.0605L50.5454 10.3382L52.2215 3.79412H54.1621L55.8381 10.3382L57.3083 3.79412H60.1605L57.3525 13.6029Z" fill="#0F2A3D"/>
<path d="M69.7103 13.6029H66.8434L66.3582 12.1912H62.4916L62.0064 13.6029H59.1395L62.8297 3.79412H66.0201L69.7103 13.6029ZM65.6672 9.98529L64.4323 6.29412L63.1826 9.98529H65.6672Z" fill="#0F2A3D"/>
<path d="M76.7123 13.6029H70.2435V3.79412H72.7722V11.3971H76.7123V13.6029Z" fill="#0F2A3D"/>
<path d="M86.9801 13.6029H84.5395L80.3936 7.92647V13.6029H77.8648V3.79412H80.4671L84.4366 9.19118V3.79412H86.9801V13.6029Z" fill="#0F2A3D"/>
<path d="M93.2465 13.7794C90.1003 13.7794 88.6007 12.0441 88.6007 9.63235V3.79412H91.1736V9.54412C91.1736 10.7059 91.8793 11.5441 93.2465 11.5441C94.5991 11.5441 95.3048 10.7059 95.3048 9.54412V3.79412H97.863V9.61765C97.863 12.0588 96.3928 13.7794 93.2465 13.7794Z" fill="#0F2A3D"/>
<path d="M104.2 13.6029H101.671V6H98.9215V3.79412H106.934V6H104.2V13.6029Z" fill="#0F2A3D"/>
<path fill-rule="evenodd" clip-rule="evenodd" d="M11.394 22.6618H0V22.2941H11.394V22.6618Z" fill="#A7B6C0"/>
<path d="M18.0305 23.9471H17.3998V21.5559H16.5397V21.0044H18.8862V21.5559H18.0305V23.9471Z" fill="#A7B6C0"/>
<path d="M23.8198 23.9471H23.1097L22.9244 23.4485H21.663L21.4777 23.9471H20.7676L21.9012 21.0044H22.6862L23.8198 23.9471ZM22.7524 22.8971L22.2937 21.6309L21.835 22.8971H22.7524Z" fill="#A7B6C0"/>
<path d="M28.5505 23.9471H27.8272L27.2494 22.9015H26.7907V23.9471H26.1644V21.0044H27.5405C28.1536 21.0044 28.5329 21.4059 28.5329 21.9529C28.5329 22.4691 28.2021 22.7515 27.8845 22.8265L28.5505 23.9471ZM27.4523 22.35C27.6993 22.35 27.889 22.2 27.889 21.9485C27.889 21.7059 27.6993 21.5559 27.4523 21.5559H26.7907V22.35H27.4523Z" fill="#A7B6C0"/>
<path d="M32.5006 24C31.6361 24 30.9304 23.4044 30.9304 22.4779C30.9304 21.5471 31.6361 20.9559 32.5006 20.9559C33.1092 20.9559 33.493 21.2647 33.7135 21.6132L33.1975 21.8956C33.0607 21.6882 32.8093 21.5118 32.5006 21.5118C31.9625 21.5118 31.5744 21.9221 31.5744 22.4779C31.5744 23.0338 31.9625 23.4441 32.5006 23.4441C32.7608 23.4441 33.0034 23.3294 33.1225 23.2191V22.8662H32.3462V22.3191H33.7488V23.4485C33.4489 23.7838 33.0299 24 32.5006 24Z" fill="#A7B6C0"/>
<path d="M38.4008 23.9471H36.319V21.0044H38.4008V21.5559H36.9453V22.1735H38.3699V22.725H36.9453V23.3956H38.4008V23.9471Z" fill="#A7B6C0"/>
<path d="M42.2733 23.9471H41.6426V21.5559H40.7825V21.0044H43.1289V21.5559H42.2733V23.9471Z" fill="#A7B6C0"/>
<path d="M50.2559 23.9471H49.6296V22.7426L48.5005 21.0044H49.215L49.9427 22.1824L50.6705 21.0044H51.3806L50.2559 22.7426V23.9471Z" fill="#A7B6C0"/>
<path d="M54.9465 24C54.0556 24 53.4072 23.3647 53.4072 22.4779C53.4072 21.5912 54.0556 20.9559 54.9465 20.9559C55.833 20.9559 56.4814 21.5912 56.4814 22.4779C56.4814 23.3647 55.833 24 54.9465 24ZM54.9465 23.4441C55.489 23.4441 55.8375 23.025 55.8375 22.4779C55.8375 21.9265 55.489 21.5118 54.9465 21.5118C54.3996 21.5118 54.0512 21.9265 54.0512 22.4779C54.0512 23.025 54.3996 23.4441 54.9465 23.4441Z" fill="#A7B6C0"/>
<path d="M60.3215 24C59.4261 24 58.9939 23.4971 58.9939 22.7691V21.0044H59.629V22.7515C59.629 23.1618 59.8672 23.4441 60.3215 23.4441C60.7758 23.4441 61.0095 23.1618 61.0095 22.7515V21.0044H61.6491V22.7691C61.6491 23.4971 61.2168 24 60.3215 24Z" fill="#A7B6C0"/>
<path d="M66.692 23.9471H65.9687L65.3909 22.9015H64.9322V23.9471H64.3059V21.0044H65.682C66.2951 21.0044 66.6744 21.4059 66.6744 21.9529C66.6744 22.4691 66.3436 22.7515 66.026 22.8265L66.692 23.9471ZM65.5938 22.35C65.8408 22.35 66.0304 22.2 66.0304 21.9485C66.0304 21.7059 65.8408 21.5559 65.5938 21.5559H64.9322V22.35H65.5938Z" fill="#A7B6C0"/>
<path d="M74.2669 23.9471H72.3923V21.0044H73.0231V23.3956H74.2669V23.9471Z" fill="#A7B6C0"/>
<path d="M78.8435 23.9471H76.7617V21.0044H78.8435V21.5559H77.388V22.1735H78.8126V22.725H77.388V23.3956H78.8435V23.9471Z" fill="#A7B6C0"/>
<path d="M84.1495 23.9471H83.4394L83.2541 23.4485H81.9927L81.8075 23.9471H81.0973L82.2309 21.0044H83.016L84.1495 23.9471ZM83.0821 22.8971L82.6234 21.6309L82.1647 22.8971H83.0821Z" fill="#A7B6C0"/>
<path d="M87.6585 23.9471H86.4941V21.0044H87.6541C88.5759 21.0044 89.2155 21.5912 89.2155 22.4735C89.2155 23.3647 88.5759 23.9471 87.6585 23.9471ZM87.6541 23.3956C88.2363 23.3956 88.5759 22.9765 88.5759 22.4735C88.5759 21.9574 88.2584 21.5559 87.6585 21.5559H87.1204V23.3956H87.6541Z" fill="#A7B6C0"/>
<path d="M92.7826 24C92.2137 24 91.8079 23.8103 91.53 23.5324L91.8741 23.0427C92.0814 23.2588 92.4033 23.4441 92.8091 23.4441C93.1575 23.4441 93.3207 23.2897 93.3207 23.1176C93.3207 22.6059 91.6271 22.9632 91.6271 21.8559C91.6271 21.3662 92.0505 20.9603 92.7429 20.9603C93.2105 20.9603 93.5986 21.1015 93.8897 21.3706L93.5413 21.8382C93.3031 21.6176 92.9855 21.5162 92.6856 21.5162C92.421 21.5162 92.271 21.6309 92.271 21.8074C92.271 22.2706 93.9603 21.9574 93.9603 23.0559C93.9603 23.5941 93.5721 24 92.7826 24Z" fill="#A7B6C0"/>
<path fill-rule="evenodd" clip-rule="evenodd" d="M110.5 22.6618H99.106V22.2941H110.5V22.6618Z" fill="#A7B6C0"/>
</g>
</svg>
