<svg width="185" height="40" viewBox="0 0 185 40" fill="none" xmlns="http://www.w3.org/2000/svg">
<path fill-rule="evenodd" clip-rule="evenodd" d="M0 0V28.799H185V0H0ZM78.0261 27.5735L69.7595 1.22549H183.775V27.5735H78.0261Z" fill="#78C317"/>
<path d="M17.0788 22.6716H6.29735V6.32353H10.5119V18.9951H17.0788V22.6716Z" fill="white"/>
<path d="M30.9818 22.6716H18.9996V6.32353H30.9818V10H23.2142V12.549H30.8102V16.2255H23.2142V18.9951H30.9818V22.6716Z" fill="white"/>
<path d="M49.062 22.6716H44.2838L43.4752 20.3186H37.0308L36.2222 22.6716H31.4441L37.5944 6.32353H42.9116L49.062 22.6716ZM42.3235 16.6422L40.2653 10.4902L38.1825 16.6422H42.3235Z" fill="white"/>
<path d="M56.9095 22.6716H50.0241V6.32353H56.885C62.0307 6.32353 65.7307 9.41177 65.7307 14.4853C65.7307 19.5588 62.0307 22.6716 56.9095 22.6716ZM56.885 18.9951C59.7519 18.9951 61.4181 16.9118 61.4181 14.4853C61.4181 11.9608 59.8989 10 56.9095 10H54.2387V18.9951H56.885Z" fill="white"/>
<path d="M95.5874 22.6716H91.1278L88.653 12.4265L86.1782 22.6716H81.7185L77.0384 6.32353H81.7675L84.2424 17.2304L87.0358 6.32353H90.2702L93.0636 17.2304L95.5139 6.32353H100.268L95.5874 22.6716Z" fill="#0F2A3D"/>
<path d="M116.184 22.6716H111.406L110.597 20.3186H104.153L103.344 22.6716H98.5659L104.716 6.32353H110.033L116.184 22.6716ZM109.445 16.6422L107.387 10.4902L105.304 16.6422H109.445Z" fill="#0F2A3D"/>
<path d="M127.854 22.6716H117.072V6.32353H121.287V18.9951H127.854V22.6716Z" fill="#0F2A3D"/>
<path d="M144.967 22.6716H140.899L133.989 13.2108V22.6716H129.775V6.32353H134.112L140.728 15.3186V6.32353H144.967V22.6716Z" fill="#0F2A3D"/>
<path d="M155.411 22.9657C150.167 22.9657 147.668 20.0735 147.668 16.0539V6.32353H151.956V15.9069C151.956 17.8431 153.132 19.2402 155.411 19.2402C157.665 19.2402 158.841 17.8431 158.841 15.9069V6.32353H163.105V16.0294C163.105 20.098 160.655 22.9657 155.411 22.9657Z" fill="#0F2A3D"/>
<path d="M173.666 22.6716H169.451V10H164.869V6.32353H178.224V10H173.666V22.6716Z" fill="#0F2A3D"/>
<path fill-rule="evenodd" clip-rule="evenodd" d="M18.9901 37.7696H0V37.1569H18.9901V37.7696Z" fill="#A7B6C0"/>
<path d="M30.0509 39.9118H28.9997V35.9265H27.5662V35.0074H31.477V35.9265H30.0509V39.9118Z" fill="#A7B6C0"/>
<path d="M39.6996 39.9118H38.5161L38.2074 39.0809H36.105L35.7962 39.9118H34.6127L36.5019 35.0074H37.8104L39.6996 39.9118ZM37.9207 38.1618L37.1562 36.0515L36.3917 38.1618H37.9207Z" fill="#A7B6C0"/>
<path d="M47.5842 39.9118H46.3787L45.4157 38.1691H44.6512V39.9118H43.6074V35.0074H45.9009C46.9227 35.0074 47.5548 35.6765 47.5548 36.5882C47.5548 37.4485 47.0035 37.9191 46.4742 38.0441L47.5842 39.9118ZM45.7538 37.25C46.1655 37.25 46.4816 37 46.4816 36.5809C46.4816 36.1765 46.1655 35.9265 45.7538 35.9265H44.6512V37.25H45.7538Z" fill="#A7B6C0"/>
<path d="M54.1676 40C52.7268 40 51.5507 39.0074 51.5507 37.4632C51.5507 35.9118 52.7268 34.9265 54.1676 34.9265C55.1821 34.9265 55.8216 35.4412 56.1892 36.0221L55.3291 36.4926C55.1012 36.1471 54.6822 35.8529 54.1676 35.8529C53.2708 35.8529 52.6239 36.5368 52.6239 37.4632C52.6239 38.3897 53.2708 39.0735 54.1676 39.0735C54.6013 39.0735 55.0056 38.8824 55.2041 38.6985V38.1103H53.9104V37.1985H56.248V39.0809C55.7481 39.6397 55.0498 40 54.1676 40Z" fill="#A7B6C0"/>
<path d="M64.0013 39.9118H60.5316V35.0074H64.0013V35.9265H61.5754V36.9559H63.9498V37.875H61.5754V38.9926H64.0013V39.9118Z" fill="#A7B6C0"/>
<path d="M70.4555 39.9118H69.4043V35.9265H67.9708V35.0074H71.8816V35.9265H70.4555V39.9118Z" fill="#A7B6C0"/>
<path d="M83.7598 39.9118H82.716V37.9044L80.8341 35.0074H82.025L83.2379 36.9706L84.4508 35.0074H85.6343L83.7598 37.9044V39.9118Z" fill="#A7B6C0"/>
<path d="M91.5775 40C90.0926 40 89.012 38.9412 89.012 37.4632C89.012 35.9853 90.0926 34.9265 91.5775 34.9265C93.0551 34.9265 94.1357 35.9853 94.1357 37.4632C94.1357 38.9412 93.0551 40 91.5775 40ZM91.5775 39.0735C92.4817 39.0735 93.0624 38.375 93.0624 37.4632C93.0624 36.5441 92.4817 35.8529 91.5775 35.8529C90.666 35.8529 90.0853 36.5441 90.0853 37.4632C90.0853 38.375 90.666 39.0735 91.5775 39.0735Z" fill="#A7B6C0"/>
<path d="M100.536 40C99.0435 40 98.3232 39.1618 98.3232 37.9485V35.0074H99.3817V37.9191C99.3817 38.6029 99.7786 39.0735 100.536 39.0735C101.293 39.0735 101.683 38.6029 101.683 37.9191V35.0074H102.748V37.9485C102.748 39.1618 102.028 40 100.536 40Z" fill="#A7B6C0"/>
<path d="M111.153 39.9118H109.948L108.985 38.1691H108.22V39.9118H107.176V35.0074H109.47C110.492 35.0074 111.124 35.6765 111.124 36.5882C111.124 37.4485 110.573 37.9191 110.043 38.0441L111.153 39.9118ZM109.323 37.25C109.735 37.25 110.051 37 110.051 36.5809C110.051 36.1765 109.735 35.9265 109.323 35.9265H108.22V37.25H109.323Z" fill="#A7B6C0"/>
<path d="M123.778 39.9118H120.654V35.0074H121.705V38.9926H123.778V39.9118Z" fill="#A7B6C0"/>
<path d="M131.406 39.9118H127.936V35.0074H131.406V35.9265H128.98V36.9559H131.354V37.875H128.98V38.9926H131.406V39.9118Z" fill="#A7B6C0"/>
<path d="M140.249 39.9118H139.066L138.757 39.0809H136.654L136.346 39.9118H135.162L137.051 35.0074H138.36L140.249 39.9118ZM138.47 38.1618L137.706 36.0515L136.941 38.1618H138.47Z" fill="#A7B6C0"/>
<path d="M146.098 39.9118H144.157V35.0074H146.09C147.627 35.0074 148.692 35.9853 148.692 37.4559C148.692 38.9412 147.627 39.9118 146.098 39.9118ZM146.09 38.9926C147.061 38.9926 147.627 38.2941 147.627 37.4559C147.627 36.5956 147.097 35.9265 146.098 35.9265H145.201V38.9926H146.09Z" fill="#A7B6C0"/>
<path d="M154.638 40C153.689 40 153.013 39.6838 152.55 39.2206L153.123 38.4044C153.469 38.7647 154.006 39.0735 154.682 39.0735C155.263 39.0735 155.535 38.8162 155.535 38.5294C155.535 37.6765 152.712 38.2721 152.712 36.4265C152.712 35.6103 153.417 34.9338 154.572 34.9338C155.351 34.9338 155.998 35.1691 156.483 35.6176L155.902 36.3971C155.505 36.0294 154.976 35.8603 154.476 35.8603C154.035 35.8603 153.785 36.0515 153.785 36.3456C153.785 37.1176 156.6 36.5956 156.6 38.4265C156.6 39.3235 155.954 40 154.638 40Z" fill="#A7B6C0"/>
<path fill-rule="evenodd" clip-rule="evenodd" d="M184.167 37.7696H165.177V37.1569H184.167V37.7696Z" fill="#A7B6C0"/>
</svg>
